
              <svg id="sw-js-blob-svg" viewBox="0 0 100 100" xmlns="http://www.w3.org/2000/svg" version="1.1">
                    <defs> 
                        <linearGradient width="400px" id="sw-gradient" x1="0" x2="1" y1="1" y2="0">
                            <stop id="stop1" stop-color="rgba(248, 117, 55, 1)" offset="0%"></stop>
                            <stop id="stop2" stop-color="rgba(251, 168, 31, 1)" offset="100%"></stop>
                        </linearGradient>
                    </defs>
                <path fill="url(#sw-gradient)" d="M24.8,-29.7C32.2,-23.3,38.5,-15.6,40.5,-6.7C42.6,2.1,40.4,12.1,35,19C29.5,25.8,20.8,29.5,11.6,33.5C2.5,37.6,-7.2,41.9,-16.1,40.3C-24.9,38.7,-33.1,31.3,-37.3,22.3C-41.5,13.4,-41.8,3,-39,-5.9C-36.3,-14.7,-30.4,-22,-23.4,-28.5C-16.4,-35,-8.2,-40.6,0.2,-40.9C8.7,-41.2,17.3,-36.1,24.8,-29.7Z" width="100%" height="100%" transform="translate(50 50)" style="transition: all 0.3s ease 0s;" stroke-width="0"></path>
              </svg>